<svg width="217" height="56" viewBox="0 0 217 56" fill="none" xmlns="http://www.w3.org/2000/svg">
<rect width="57" height="56" rx="28" fill="#A53DFF"/>
<path d="M31.856 32.592H24.872L23.672 36H20.816L26.792 19.296H29.96L35.936 36H33.056L31.856 32.592ZM31.088 30.36L28.376 22.608L25.64 30.36H31.088Z" fill="white"/>
<path d="M90.088 39H85.512L83.752 33.848H75.656L73.896 39H69.384L77.096 17.88H82.376L90.088 39ZM76.648 30.584H82.76L79.688 21.368L76.648 30.584ZM99.079 39.32C97.4577 39.32 95.975 39.032 94.631 38.456C93.3083 37.88 92.231 37.0693 91.399 36.024L93.927 33.464C94.439 34.232 95.1217 34.8613 95.975 35.352C96.8283 35.8427 97.8417 36.088 99.015 36.088C99.847 36.088 100.508 35.9707 100.999 35.736C101.511 35.48 101.767 35.0853 101.767 34.552C101.767 34.2107 101.65 33.9227 101.415 33.688C101.18 33.432 100.711 33.2293 100.007 33.08L97.191 32.504C95.335 32.12 94.0123 31.544 93.223 30.776C92.455 29.9867 92.071 28.9733 92.071 27.736C92.071 26.8613 92.327 26.04 92.839 25.272C93.3723 24.504 94.1617 23.8853 95.207 23.416C96.2523 22.9253 97.5537 22.68 99.111 22.68C100.711 22.68 102.098 22.936 103.271 23.448C104.466 23.9387 105.404 24.6747 106.087 25.656L103.463 28.216C102.994 27.4693 102.375 26.904 101.607 26.52C100.86 26.1147 100.071 25.912 99.239 25.912C98.6417 25.912 98.1297 25.976 97.703 26.104C97.2763 26.232 96.9563 26.4133 96.743 26.648C96.5297 26.8613 96.423 27.1387 96.423 27.48C96.423 27.8213 96.5723 28.12 96.871 28.376C97.1697 28.6107 97.7137 28.8133 98.503 28.984L101.767 29.656C103.346 29.976 104.476 30.52 105.159 31.288C105.842 32.0347 106.183 32.9413 106.183 34.008C106.183 35.032 105.906 35.9493 105.351 36.76C104.818 37.5493 104.018 38.1787 102.951 38.648C101.906 39.096 100.615 39.32 99.079 39.32ZM109.679 39V15.992H114.063V25.72C114.575 24.696 115.279 23.9387 116.175 23.448C117.071 22.936 118.084 22.68 119.215 22.68C120.324 22.68 121.306 22.8933 122.159 23.32C123.034 23.7467 123.716 24.3973 124.207 25.272C124.719 26.1253 124.975 27.2027 124.975 28.504V39H120.591V29.784C120.591 28.3973 120.324 27.448 119.791 26.936C119.258 26.4027 118.575 26.136 117.743 26.136C117.124 26.136 116.527 26.2853 115.951 26.584C115.396 26.8613 114.938 27.3307 114.575 27.992C114.234 28.632 114.063 29.4853 114.063 30.552V39H109.679ZM135.06 39.32C133.993 39.32 133.033 39.128 132.18 38.744C131.326 38.36 130.644 37.752 130.132 36.92C129.641 36.0667 129.396 34.968 129.396 33.624V23H133.78V32.568C133.78 33.8053 134.036 34.6693 134.548 35.16C135.06 35.6293 135.796 35.864 136.756 35.864C137.204 35.864 137.641 35.7893 138.068 35.64C138.494 35.4693 138.868 35.2133 139.188 34.872C139.529 34.5307 139.796 34.0933 139.988 33.56C140.18 33.0053 140.276 32.3547 140.276 31.608V23H144.66V39H140.756L140.596 36.216C140.062 37.2827 139.326 38.072 138.388 38.584C137.47 39.0747 136.361 39.32 135.06 39.32ZM154.937 18.104V33.784C154.937 34.552 155.129 35.1173 155.513 35.48C155.918 35.8213 156.462 35.992 157.145 35.992C157.678 35.992 158.147 35.9173 158.553 35.768C158.958 35.5973 159.321 35.3733 159.641 35.096L160.345 38.008C159.833 38.4133 159.193 38.7333 158.425 38.968C157.657 39.2027 156.846 39.32 155.993 39.32C154.926 39.32 153.977 39.16 153.145 38.84C152.334 38.52 151.694 38.008 151.225 37.304C150.777 36.6 150.553 35.6613 150.553 34.488V19.32L154.937 18.104ZM160.057 23V26.264H147.609V23H160.057ZM170.319 22.68C171.94 22.68 173.359 23.0107 174.575 23.672C175.812 24.3333 176.772 25.2827 177.455 26.52C178.159 27.7573 178.511 29.2507 178.511 31C178.511 32.728 178.159 34.2213 177.455 35.48C176.772 36.7173 175.812 37.6667 174.575 38.328C173.359 38.9893 171.94 39.32 170.319 39.32C168.719 39.32 167.3 38.9893 166.063 38.328C164.825 37.6667 163.855 36.7173 163.151 35.48C162.468 34.2213 162.127 32.728 162.127 31C162.127 29.2507 162.468 27.7573 163.151 26.52C163.855 25.2827 164.825 24.3333 166.063 23.672C167.3 23.0107 168.719 22.68 170.319 22.68ZM170.319 25.944C169.508 25.944 168.815 26.136 168.239 26.52C167.684 26.8827 167.257 27.4373 166.959 28.184C166.66 28.9307 166.511 29.8693 166.511 31C166.511 32.1307 166.66 33.0693 166.959 33.816C167.257 34.5627 167.684 35.128 168.239 35.512C168.815 35.8747 169.508 36.056 170.319 36.056C171.108 36.056 171.78 35.8747 172.335 35.512C172.911 35.128 173.348 34.5627 173.647 33.816C173.945 33.0693 174.095 32.1307 174.095 31C174.095 29.8693 173.945 28.9307 173.647 28.184C173.348 27.4373 172.911 26.8827 172.335 26.52C171.78 26.136 171.108 25.944 170.319 25.944ZM188.579 39.32C186.958 39.32 185.475 39.032 184.131 38.456C182.808 37.88 181.731 37.0693 180.899 36.024L183.427 33.464C183.939 34.232 184.622 34.8613 185.475 35.352C186.328 35.8427 187.342 36.088 188.515 36.088C189.347 36.088 190.008 35.9707 190.499 35.736C191.011 35.48 191.267 35.0853 191.267 34.552C191.267 34.2107 191.15 33.9227 190.915 33.688C190.68 33.432 190.211 33.2293 189.507 33.08L186.691 32.504C184.835 32.12 183.512 31.544 182.723 30.776C181.955 29.9867 181.571 28.9733 181.571 27.736C181.571 26.8613 181.827 26.04 182.339 25.272C182.872 24.504 183.662 23.8853 184.707 23.416C185.752 22.9253 187.054 22.68 188.611 22.68C190.211 22.68 191.598 22.936 192.771 23.448C193.966 23.9387 194.904 24.6747 195.587 25.656L192.963 28.216C192.494 27.4693 191.875 26.904 191.107 26.52C190.36 26.1147 189.571 25.912 188.739 25.912C188.142 25.912 187.63 25.976 187.203 26.104C186.776 26.232 186.456 26.4133 186.243 26.648C186.03 26.8613 185.923 27.1387 185.923 27.48C185.923 27.8213 186.072 28.12 186.371 28.376C186.67 28.6107 187.214 28.8133 188.003 28.984L191.267 29.656C192.846 29.976 193.976 30.52 194.659 31.288C195.342 32.0347 195.683 32.9413 195.683 34.008C195.683 35.032 195.406 35.9493 194.851 36.76C194.318 37.5493 193.518 38.1787 192.451 38.648C191.406 39.096 190.115 39.32 188.579 39.32ZM199.179 39V15.992H203.563V25.72C204.075 24.696 204.779 23.9387 205.675 23.448C206.571 22.936 207.584 22.68 208.715 22.68C209.824 22.68 210.806 22.8933 211.659 23.32C212.534 23.7467 213.216 24.3973 213.707 25.272C214.219 26.1253 214.475 27.2027 214.475 28.504V39H210.091V29.784C210.091 28.3973 209.824 27.448 209.291 26.936C208.758 26.4027 208.075 26.136 207.243 26.136C206.624 26.136 206.027 26.2853 205.451 26.584C204.896 26.8613 204.438 27.3307 204.075 27.992C203.734 28.632 203.563 29.4853 203.563 30.552V39H199.179Z" fill="#132238"/>
</svg>
